<svg
  xmlns="http://www.w3.org/2000/svg"
  viewBox="0 0 64 64"
  fill="none"
>
  <rect width="64" height="64" rx="16" fill="#0f172a" />
  <path
    d="M32 10 18 16v13c0 9.8 5.9 18.7 14 22 8.1-3.3 14-12.2 14-22V16L32 10Z"
    fill="#10b981"
  />
  <path
    d="M32 21c-4.1 0-7.5 3.4-7.5 7.5S27.9 36 32 36s7.5-3.4 7.5-7.5S36.1 21 32 21Zm0 11.5a4 4 0 1 1 0-8 4 4 0 0 1 0 8Z"
    fill="#ecfeff"
  />
  <path
    d="M32 27.5a1.8 1.8 0 1 0 0 3.6 1.8 1.8 0 0 0 0-3.6Z"
    fill="#0f172a"
  />
  <path
    d="M24 42.5h16"
    stroke="#ecfeff"
    stroke-linecap="round"
    stroke-width="3"
  />
</svg>
